<mxfile host="app.diagrams.net" modified="2023-07-14T20:12:49.392Z" agent="Mozilla/5.0 (Windows NT 10.0; Win64; x64) AppleWebKit/537.36 (KHTML, like Gecko) Chrome/114.0.0.0 Safari/537.36 Edg/114.0.1823.79" etag="9uzyLdYQ7-kcrBIziHPx" version="21.6.2" type="device">
  <diagram id="Xnlx7PFB0LHwfUJRVUgz" name="PÃ¡gina-1">
    <mxGraphModel dx="997" dy="1793" grid="1" gridSize="10" guides="1" tooltips="1" connect="1" arrows="1" fold="1" page="1" pageScale="1" pageWidth="827" pageHeight="1169" math="0" shadow="0">
      <root>
        <mxCell id="0" />
        <mxCell id="1" parent="0" />
        <mxCell id="Dg7Ru5s463tSVziSTYm2-1" value="&lt;p style=&quot;margin:0px;margin-top:4px;text-align:center;&quot;&gt;&lt;b&gt;&lt;i&gt;&amp;lt;&amp;lt;Interface&amp;gt;&amp;gt;&lt;/i&gt;&lt;br&gt;Icaneta&lt;/b&gt;&lt;/p&gt;&lt;hr size=&quot;1&quot;&gt;&lt;p style=&quot;margin:0px;margin-left:4px;&quot;&gt;&lt;b&gt;+ escrever(): boolean&lt;br&gt;&lt;br&gt;&lt;/b&gt;&lt;/p&gt;" style="verticalAlign=top;align=left;overflow=fill;fontSize=12;fontFamily=Helvetica;html=1;whiteSpace=wrap;fillColor=#d5e8d4;strokeColor=#82b366;" parent="1" vertex="1">
          <mxGeometry x="600" y="-1120" width="200" height="120" as="geometry" />
        </mxCell>
        <mxCell id="Dg7Ru5s463tSVziSTYm2-2" value="&lt;p style=&quot;margin:0px;margin-top:4px;text-align:center;&quot;&gt;&lt;b&gt;&lt;i&gt;&amp;lt;&amp;lt;Interface&amp;gt;&amp;gt;&lt;/i&gt;&lt;br&gt;ITampa&lt;/b&gt;&lt;/p&gt;&lt;hr size=&quot;1&quot;&gt;&lt;p style=&quot;margin:0px;margin-left:4px;&quot;&gt;&lt;b&gt;+ tampar(): bool&amp;nbsp;&lt;br&gt;+ destampar(): bool&lt;/b&gt;&lt;/p&gt;" style="verticalAlign=top;align=left;overflow=fill;fontSize=12;fontFamily=Helvetica;html=1;whiteSpace=wrap;fillColor=#d5e8d4;strokeColor=#82b366;" parent="1" vertex="1">
          <mxGeometry x="560" y="-600" width="200" height="120" as="geometry" />
        </mxCell>
        <mxCell id="Dg7Ru5s463tSVziSTYm2-4" value="&lt;p style=&quot;margin:0px;margin-top:4px;text-align:center;&quot;&gt;&lt;b&gt;Caneta&lt;/b&gt;&lt;/p&gt;&lt;hr size=&quot;1&quot;&gt;&lt;p style=&quot;border-color: var(--border-color); margin: 0px 0px 0px 4px;&quot;&gt;&lt;b&gt;- ponta: float&lt;/b&gt;&lt;/p&gt;&lt;p style=&quot;border-color: var(--border-color); margin: 0px 0px 0px 4px;&quot;&gt;&lt;b&gt;- corTinta: string&lt;/b&gt;&lt;/p&gt;&lt;p style=&quot;border-color: var(--border-color); margin: 0px 0px 0px 4px;&quot;&gt;&lt;b&gt;- nivelCarga: int&lt;/b&gt;&lt;/p&gt;&lt;p style=&quot;border-color: var(--border-color); margin: 0px 0px 0px 4px;&quot;&gt;&lt;b&gt;- tampa: Tampa&lt;/b&gt;&lt;/p&gt;&lt;p style=&quot;border-color: var(--border-color); margin: 0px 0px 0px 4px;&quot;&gt;&lt;b&gt;- marca: string&lt;/b&gt;&lt;/p&gt;&lt;p style=&quot;border-color: var(--border-color); margin: 0px 0px 0px 4px;&quot;&gt;&lt;b&gt;- componente: Componente&lt;/b&gt;&lt;/p&gt;&lt;hr size=&quot;1&quot;&gt;&lt;p style=&quot;margin:0px;margin-left:4px;&quot;&gt;&lt;b style=&quot;background-color: initial;&quot;&gt;+ getPonta(): string&lt;/b&gt;&lt;br&gt;&lt;/p&gt;&lt;p style=&quot;margin:0px;margin-left:4px;&quot;&gt;&lt;b&gt;+ setPonta(ponta): void&lt;/b&gt;&lt;/p&gt;&lt;p style=&quot;border-color: var(--border-color); margin: 0px 0px 0px 4px;&quot;&gt;&lt;b&gt;+ getCorTinta(): string&lt;/b&gt;&lt;/p&gt;&lt;p style=&quot;border-color: var(--border-color); margin: 0px 0px 0px 4px;&quot;&gt;&lt;b&gt;+ setCorTinta(corTinta): void&lt;/b&gt;&lt;/p&gt;&lt;p style=&quot;border-color: var(--border-color); margin: 0px 0px 0px 4px;&quot;&gt;&lt;b&gt;+ getNivelCarga(): string&lt;/b&gt;&lt;/p&gt;&lt;p style=&quot;border-color: var(--border-color); margin: 0px 0px 0px 4px;&quot;&gt;&lt;b&gt;+ setNivelCarga(nivelCarga): void&lt;/b&gt;&lt;/p&gt;&lt;p style=&quot;border-color: var(--border-color); margin: 0px 0px 0px 4px;&quot;&gt;&lt;b&gt;+ getMarca(): string&lt;/b&gt;&lt;/p&gt;&lt;p style=&quot;border-color: var(--border-color); margin: 0px 0px 0px 4px;&quot;&gt;&lt;b&gt;+ setMarca(marca): void&lt;/b&gt;&lt;/p&gt;&lt;p style=&quot;border-color: var(--border-color); margin: 0px 0px 0px 4px;&quot;&gt;&lt;b&gt;+ getComponente(): string&lt;/b&gt;&lt;/p&gt;&lt;p style=&quot;border-color: var(--border-color); margin: 0px 0px 0px 4px;&quot;&gt;&lt;b&gt;+ setComponente(componente Componente&amp;nbsp;&lt;/b&gt;&lt;b style=&quot;background-color: initial;&quot;&gt;): void&lt;/b&gt;&lt;/p&gt;&lt;p style=&quot;border-color: var(--border-color); margin: 0px 0px 0px 4px;&quot;&gt;&lt;b&gt;&lt;br style=&quot;border-color: var(--border-color);&quot;&gt;&lt;/b&gt;&lt;/p&gt;&lt;p style=&quot;border-color: var(--border-color); margin: 0px 0px 0px 4px;&quot;&gt;&lt;b&gt;&lt;br&gt;&lt;/b&gt;&lt;/p&gt;&lt;p style=&quot;border-color: var(--border-color); margin: 0px 0px 0px 4px;&quot;&gt;&lt;b&gt;&lt;br&gt;&lt;/b&gt;&lt;/p&gt;&lt;p style=&quot;border-color: var(--border-color); margin: 0px 0px 0px 4px;&quot;&gt;&lt;b&gt;&lt;br style=&quot;border-color: var(--border-color);&quot;&gt;&lt;/b&gt;&lt;/p&gt;&lt;p style=&quot;border-color: var(--border-color); margin: 0px 0px 0px 4px;&quot;&gt;&lt;br style=&quot;border-color: var(--border-color);&quot;&gt;&lt;/p&gt;" style="verticalAlign=top;align=left;overflow=fill;fontSize=12;fontFamily=Helvetica;html=1;whiteSpace=wrap;fillColor=#fff2cc;strokeColor=#d6b656;" parent="1" vertex="1">
          <mxGeometry x="240" y="-1160" width="320" height="280" as="geometry" />
        </mxCell>
        <mxCell id="Dg7Ru5s463tSVziSTYm2-5" value="&lt;p style=&quot;margin:0px;margin-top:4px;text-align:center;&quot;&gt;&lt;b&gt;Tampa&lt;/b&gt;&lt;/p&gt;&lt;hr size=&quot;1&quot;&gt;&lt;p style=&quot;margin:0px;margin-left:4px;&quot;&gt;&lt;b&gt;- materiaPrima: string&lt;/b&gt;&lt;/p&gt;&lt;p style=&quot;margin:0px;margin-left:4px;&quot;&gt;&lt;b&gt;- tamanho: string&lt;/b&gt;&lt;/p&gt;&lt;p style=&quot;margin:0px;margin-left:4px;&quot;&gt;&lt;b&gt;- forma: string&lt;/b&gt;&lt;/p&gt;&lt;p style=&quot;margin:0px;margin-left:4px;&quot;&gt;&lt;b&gt;- cor: string&amp;nbsp;&lt;/b&gt;&lt;/p&gt;&lt;hr size=&quot;1&quot;&gt;&lt;p style=&quot;border-color: var(--border-color); margin: 0px 0px 0px 4px;&quot;&gt;&lt;b&gt;+ getMateriaPrima(): string&lt;/b&gt;&lt;/p&gt;&lt;p style=&quot;border-color: var(--border-color); margin: 0px 0px 0px 4px;&quot;&gt;&lt;b&gt;+ setMateriaPrima(materiaPrima): void&lt;/b&gt;&lt;/p&gt;&lt;p style=&quot;border-color: var(--border-color); margin: 0px 0px 0px 4px;&quot;&gt;&lt;b&gt;+ getTamanho(): string&lt;/b&gt;&lt;/p&gt;&lt;p style=&quot;border-color: var(--border-color); margin: 0px 0px 0px 4px;&quot;&gt;&lt;b&gt;+ setTamanho(tamanho): void&lt;/b&gt;&lt;/p&gt;&lt;p style=&quot;border-color: var(--border-color); margin: 0px 0px 0px 4px;&quot;&gt;&lt;b&gt;+ getForma(): string&lt;/b&gt;&lt;/p&gt;&lt;p style=&quot;border-color: var(--border-color); margin: 0px 0px 0px 4px;&quot;&gt;&lt;b&gt;+ setForma(forma): void&lt;/b&gt;&lt;/p&gt;&lt;p style=&quot;border-color: var(--border-color); margin: 0px 0px 0px 4px;&quot;&gt;&lt;b&gt;+ getCor(): string&lt;/b&gt;&lt;/p&gt;&lt;p style=&quot;border-color: var(--border-color); margin: 0px 0px 0px 4px;&quot;&gt;&lt;b&gt;+ setCor(cor): void&lt;/b&gt;&lt;/p&gt;" style="verticalAlign=top;align=left;overflow=fill;fontSize=12;fontFamily=Helvetica;html=1;whiteSpace=wrap;fillColor=#fff2cc;strokeColor=#d6b656;" parent="1" vertex="1">
          <mxGeometry x="200" y="-600" width="240" height="245" as="geometry" />
        </mxCell>
        <mxCell id="Dg7Ru5s463tSVziSTYm2-9" value="" style="endArrow=block;dashed=1;endFill=0;html=1;rounded=0;entryX=0;entryY=0.5;entryDx=0;entryDy=0;exitX=1.002;exitY=0.531;exitDx=0;exitDy=0;exitPerimeter=0;" parent="1" source="Dg7Ru5s463tSVziSTYm2-4" target="Dg7Ru5s463tSVziSTYm2-1" edge="1">
          <mxGeometry width="160" relative="1" as="geometry">
            <mxPoint x="400" y="-1060" as="sourcePoint" />
            <mxPoint x="420" y="-1060.5" as="targetPoint" />
          </mxGeometry>
        </mxCell>
        <mxCell id="Dg7Ru5s463tSVziSTYm2-10" value="" style="endArrow=block;dashed=1;endFill=0;endSize=12;html=1;rounded=0;exitX=1.008;exitY=0.392;exitDx=0;exitDy=0;entryX=0;entryY=0.5;entryDx=0;entryDy=0;exitPerimeter=0;" parent="1" source="Dg7Ru5s463tSVziSTYm2-5" target="Dg7Ru5s463tSVziSTYm2-2" edge="1">
          <mxGeometry width="160" relative="1" as="geometry">
            <mxPoint x="440" y="-660.5" as="sourcePoint" />
            <mxPoint x="120" y="-290" as="targetPoint" />
          </mxGeometry>
        </mxCell>
        <mxCell id="Dg7Ru5s463tSVziSTYm2-12" value="&lt;p style=&quot;margin:0px;margin-top:4px;text-align:center;&quot;&gt;&lt;b&gt;&lt;i&gt;&amp;lt;&amp;lt;Interface&amp;gt;&amp;gt;&lt;/i&gt;&lt;br&gt;IVerificador&lt;/b&gt;&lt;/p&gt;&lt;hr size=&quot;1&quot;&gt;&lt;p style=&quot;margin:0px;margin-left:4px;&quot;&gt;&lt;b style=&quot;border-color: var(--border-color);&quot;&gt;+ verificaAtributo(valor): boolean&lt;/b&gt;&lt;br&gt;&lt;/p&gt;" style="verticalAlign=top;align=left;overflow=fill;fontSize=12;fontFamily=Helvetica;html=1;whiteSpace=wrap;fillColor=#d5e8d4;strokeColor=#82b366;" parent="1" vertex="1">
          <mxGeometry x="20" y="-1140" width="200" height="120" as="geometry" />
        </mxCell>
        <mxCell id="Dg7Ru5s463tSVziSTYm2-14" value="" style="endArrow=block;dashed=1;endFill=0;endSize=12;html=1;rounded=0;entryX=0.215;entryY=1;entryDx=0;entryDy=0;entryPerimeter=0;exitX=0;exitY=0.053;exitDx=0;exitDy=0;exitPerimeter=0;" parent="1" source="Dg7Ru5s463tSVziSTYm2-5" target="Dg7Ru5s463tSVziSTYm2-12" edge="1">
          <mxGeometry width="160" relative="1" as="geometry">
            <mxPoint x="200" y="-580" as="sourcePoint" />
            <mxPoint x="10" y="-490" as="targetPoint" />
            <Array as="points">
              <mxPoint x="70" y="-587" />
            </Array>
          </mxGeometry>
        </mxCell>
        <mxCell id="Q6ze95JbzTpvuYCpN2tf-1" value="&lt;p style=&quot;margin:0px;margin-top:4px;text-align:center;&quot;&gt;&lt;b&gt;Botao&lt;/b&gt;&lt;/p&gt;&lt;hr size=&quot;1&quot;&gt;&lt;p style=&quot;margin:0px;margin-left:4px;&quot;&gt;&lt;b&gt;- materiaPrima: String&lt;/b&gt;&lt;/p&gt;&lt;p style=&quot;margin:0px;margin-left:4px;&quot;&gt;&lt;b&gt;- tamanho: string&lt;/b&gt;&lt;/p&gt;&lt;p style=&quot;margin:0px;margin-left:4px;&quot;&gt;&lt;b&gt;- forma: string&lt;/b&gt;&lt;/p&gt;&lt;p style=&quot;margin:0px;margin-left:4px;&quot;&gt;&lt;b&gt;- cor: string&lt;/b&gt;&lt;/p&gt;&lt;hr size=&quot;1&quot;&gt;&lt;p style=&quot;border-color: var(--border-color); margin: 0px 0px 0px 4px;&quot;&gt;&lt;b style=&quot;border-color: var(--border-color);&quot;&gt;+ getMateriaPrima(): string&lt;/b&gt;&lt;/p&gt;&lt;p style=&quot;border-color: var(--border-color); margin: 0px 0px 0px 4px;&quot;&gt;&lt;b style=&quot;border-color: var(--border-color);&quot;&gt;+ setMateriaPrima(materiaPrima): void&lt;/b&gt;&lt;/p&gt;&lt;p style=&quot;border-color: var(--border-color); margin: 0px 0px 0px 4px;&quot;&gt;&lt;b style=&quot;border-color: var(--border-color);&quot;&gt;+ getTamanho(): string&lt;/b&gt;&lt;/p&gt;&lt;p style=&quot;border-color: var(--border-color); margin: 0px 0px 0px 4px;&quot;&gt;&lt;b style=&quot;border-color: var(--border-color);&quot;&gt;+ setTamanho(tamanho): void&lt;/b&gt;&lt;/p&gt;&lt;p style=&quot;border-color: var(--border-color); margin: 0px 0px 0px 4px;&quot;&gt;&lt;b style=&quot;border-color: var(--border-color);&quot;&gt;+ getForma(): string&lt;/b&gt;&lt;/p&gt;&lt;p style=&quot;border-color: var(--border-color); margin: 0px 0px 0px 4px;&quot;&gt;&lt;b style=&quot;border-color: var(--border-color);&quot;&gt;+ setForma(forma): void&lt;/b&gt;&lt;/p&gt;&lt;p style=&quot;border-color: var(--border-color); margin: 0px 0px 0px 4px;&quot;&gt;&lt;b style=&quot;border-color: var(--border-color);&quot;&gt;+ getCor(): string&lt;/b&gt;&lt;/p&gt;&lt;p style=&quot;border-color: var(--border-color); margin: 0px 0px 0px 4px;&quot;&gt;&lt;b style=&quot;border-color: var(--border-color);&quot;&gt;+ setCor(cor): void&lt;/b&gt;&lt;/p&gt;" style="verticalAlign=top;align=left;overflow=fill;fontSize=12;fontFamily=Helvetica;html=1;whiteSpace=wrap;fillColor=#fff2cc;strokeColor=#d6b656;" parent="1" vertex="1">
          <mxGeometry x="200" y="-340" width="240" height="240" as="geometry" />
        </mxCell>
        <mxCell id="Q6ze95JbzTpvuYCpN2tf-4" value="&lt;p style=&quot;margin:0px;margin-top:4px;text-align:center;&quot;&gt;&lt;b&gt;Componente&lt;/b&gt;&lt;/p&gt;&lt;hr size=&quot;1&quot;&gt;&lt;p style=&quot;margin:0px;margin-left:4px;&quot;&gt;&lt;b&gt;- tipoComponente: Objeto&lt;/b&gt;&lt;/p&gt;&lt;hr size=&quot;1&quot;&gt;&lt;p style=&quot;margin:0px;margin-left:4px;&quot;&gt;&lt;b&gt;getTipoComponente(): string&lt;/b&gt;&lt;/p&gt;&lt;p style=&quot;margin:0px;margin-left:4px;&quot;&gt;&lt;b&gt;setTipoComponente(tipoComponente): void&lt;/b&gt;&lt;/p&gt;" style="verticalAlign=top;align=left;overflow=fill;fontSize=12;fontFamily=Helvetica;html=1;whiteSpace=wrap;fillColor=#fff2cc;strokeColor=#d6b656;" parent="1" vertex="1">
          <mxGeometry x="200" y="-800" width="280" height="120" as="geometry" />
        </mxCell>
        <mxCell id="Q6ze95JbzTpvuYCpN2tf-12" value="&lt;p style=&quot;margin:0px;margin-top:4px;text-align:center;&quot;&gt;&lt;b&gt;&lt;i&gt;&amp;lt;&amp;lt;Interface&amp;gt;&amp;gt;&lt;/i&gt;&lt;br&gt;IComponente&lt;/b&gt;&lt;/p&gt;&lt;hr size=&quot;1&quot;&gt;&lt;p style=&quot;margin:0px;margin-left:4px;&quot;&gt;&lt;b&gt;+ escolheComponente(valor): Objeto&lt;br&gt;&lt;br&gt;&lt;/b&gt;&lt;/p&gt;" style="verticalAlign=top;align=left;overflow=fill;fontSize=12;fontFamily=Helvetica;html=1;whiteSpace=wrap;fillColor=#d5e8d4;strokeColor=#82b366;" parent="1" vertex="1">
          <mxGeometry x="560" y="-800" width="240" height="140" as="geometry" />
        </mxCell>
        <mxCell id="Q6ze95JbzTpvuYCpN2tf-13" value="" style="endArrow=block;dashed=1;endFill=0;endSize=12;html=1;rounded=0;entryX=-0.004;entryY=0.431;entryDx=0;entryDy=0;exitX=1;exitY=0.5;exitDx=0;exitDy=0;entryPerimeter=0;" parent="1" source="Q6ze95JbzTpvuYCpN2tf-4" target="Q6ze95JbzTpvuYCpN2tf-12" edge="1">
          <mxGeometry width="160" relative="1" as="geometry">
            <mxPoint x="100" y="-690" as="sourcePoint" />
            <mxPoint x="260" y="-690" as="targetPoint" />
          </mxGeometry>
        </mxCell>
        <mxCell id="Q6ze95JbzTpvuYCpN2tf-14" value="&lt;b&gt;SWITCH&lt;/b&gt;" style="rhombus;whiteSpace=wrap;html=1;fontColor=#000000;fillColor=#ffffc0;strokeColor=#ff0000;" parent="1" vertex="1">
          <mxGeometry x="110" y="-650" width="80" height="40" as="geometry" />
        </mxCell>
        <mxCell id="Q6ze95JbzTpvuYCpN2tf-15" value="" style="html=1;align=left;verticalAlign=bottom;endArrow=open;endSize=8;strokeColor=#ff0000;rounded=0;entryX=-0.008;entryY=0.423;entryDx=0;entryDy=0;exitX=0;exitY=0.5;exitDx=0;exitDy=0;entryPerimeter=0;" parent="1" source="Q6ze95JbzTpvuYCpN2tf-14" target="Q6ze95JbzTpvuYCpN2tf-1" edge="1">
          <mxGeometry x="-1" relative="1" as="geometry">
            <mxPoint x="500" y="-420" as="targetPoint" />
          </mxGeometry>
        </mxCell>
        <mxCell id="Q6ze95JbzTpvuYCpN2tf-16" value="" style="html=1;align=left;verticalAlign=top;endArrow=open;endSize=8;strokeColor=#ff0000;rounded=0;entryX=-0.004;entryY=0.428;entryDx=0;entryDy=0;exitX=0.5;exitY=1;exitDx=0;exitDy=0;entryPerimeter=0;" parent="1" source="Q6ze95JbzTpvuYCpN2tf-14" target="Dg7Ru5s463tSVziSTYm2-5" edge="1">
          <mxGeometry x="-1" relative="1" as="geometry">
            <mxPoint x="360" y="-340" as="targetPoint" />
          </mxGeometry>
        </mxCell>
        <mxCell id="Q6ze95JbzTpvuYCpN2tf-17" value="&lt;p style=&quot;margin:0px;margin-top:4px;text-align:center;&quot;&gt;&lt;b&gt;&lt;i&gt;&amp;lt;&amp;lt;Interface&amp;gt;&amp;gt;&lt;/i&gt;&lt;br&gt;IBotao&lt;/b&gt;&lt;/p&gt;&lt;hr size=&quot;1&quot;&gt;&lt;p style=&quot;margin:0px;margin-left:4px;&quot;&gt;&lt;b style=&quot;background-color: initial;&quot;&gt;+ clique(): bool&lt;/b&gt;&lt;br&gt;&lt;/p&gt;&lt;p style=&quot;margin:0px;margin-left:4px;&quot;&gt;&lt;br&gt;&lt;/p&gt;" style="verticalAlign=top;align=left;overflow=fill;fontSize=12;fontFamily=Helvetica;html=1;whiteSpace=wrap;fillColor=#d5e8d4;strokeColor=#82b366;" parent="1" vertex="1">
          <mxGeometry x="560" y="-360" width="200" height="120" as="geometry" />
        </mxCell>
        <mxCell id="Q6ze95JbzTpvuYCpN2tf-18" value="" style="endArrow=block;dashed=1;endFill=0;endSize=12;html=1;rounded=0;exitX=1.009;exitY=0.459;exitDx=0;exitDy=0;entryX=0;entryY=0.5;entryDx=0;entryDy=0;exitPerimeter=0;" parent="1" source="Q6ze95JbzTpvuYCpN2tf-1" target="Q6ze95JbzTpvuYCpN2tf-17" edge="1">
          <mxGeometry width="160" relative="1" as="geometry">
            <mxPoint x="610" y="-390" as="sourcePoint" />
            <mxPoint x="690" y="-310" as="targetPoint" />
          </mxGeometry>
        </mxCell>
        <mxCell id="Q6ze95JbzTpvuYCpN2tf-19" value="1" style="endArrow=open;html=1;endSize=12;startArrow=diamondThin;startSize=14;startFill=1;align=left;verticalAlign=bottom;rounded=0;entryX=0.567;entryY=-0.012;entryDx=0;entryDy=0;entryPerimeter=0;exitX=0.5;exitY=1;exitDx=0;exitDy=0;" parent="1" source="Dg7Ru5s463tSVziSTYm2-4" target="Q6ze95JbzTpvuYCpN2tf-4" edge="1">
          <mxGeometry x="-1" y="3" relative="1" as="geometry">
            <mxPoint x="300" y="-750" as="sourcePoint" />
            <mxPoint x="460" y="-750" as="targetPoint" />
          </mxGeometry>
        </mxCell>
        <mxCell id="Q6ze95JbzTpvuYCpN2tf-20" value="1" style="endArrow=open;html=1;endSize=12;startArrow=diamondThin;startSize=14;startFill=0;align=left;verticalAlign=bottom;rounded=0;entryX=1;entryY=0.5;entryDx=0;entryDy=0;exitX=0.463;exitY=0.995;exitDx=0;exitDy=0;exitPerimeter=0;" parent="1" source="Q6ze95JbzTpvuYCpN2tf-4" target="Q6ze95JbzTpvuYCpN2tf-14" edge="1">
          <mxGeometry x="-1" y="3" relative="1" as="geometry">
            <mxPoint x="310" y="-450" as="sourcePoint" />
            <mxPoint x="470" y="-450" as="targetPoint" />
          </mxGeometry>
        </mxCell>
        <mxCell id="Q6ze95JbzTpvuYCpN2tf-21" value="" style="endArrow=block;dashed=1;endFill=0;endSize=12;html=1;rounded=0;exitX=-0.017;exitY=0.574;exitDx=0;exitDy=0;exitPerimeter=0;" parent="1" source="Q6ze95JbzTpvuYCpN2tf-1" edge="1">
          <mxGeometry width="160" relative="1" as="geometry">
            <mxPoint x="350" y="-330" as="sourcePoint" />
            <mxPoint x="40" y="-1020" as="targetPoint" />
            <Array as="points">
              <mxPoint x="40" y="-200" />
            </Array>
          </mxGeometry>
        </mxCell>
        <mxCell id="Q6ze95JbzTpvuYCpN2tf-24" value="" style="endArrow=block;dashed=1;endFill=0;endSize=12;html=1;rounded=0;exitX=0.006;exitY=0.725;exitDx=0;exitDy=0;exitPerimeter=0;" parent="1" source="Dg7Ru5s463tSVziSTYm2-4" edge="1">
          <mxGeometry width="160" relative="1" as="geometry">
            <mxPoint x="236" y="-956" as="sourcePoint" />
            <mxPoint x="127" y="-1020" as="targetPoint" />
            <Array as="points">
              <mxPoint x="127" y="-957" />
            </Array>
          </mxGeometry>
        </mxCell>
      </root>
    </mxGraphModel>
  </diagram>
</mxfile>
